<?xml version="1.0" encoding="UTF-8"?>
<svg version="1.1" xmlns="http://www.w3.org/2000/svg" width="411" height="407">
<path d="M0 0 C135.63 0 271.26 0 411 0 C411 134.31 411 268.62 411 407 C275.37 407 139.74 407 0 407 C0 272.69 0 138.38 0 0 Z " fill="#FBD10D" transform="translate(0,0)"/>
<path d="M0 0 C4.03852134 4.22620903 6.32457062 8.36972574 8.5 13.75 C9.09297719 15.16233128 9.68803313 16.57379158 10.28515625 17.984375 C10.71658936 19.00821289 10.71658936 19.00821289 11.15673828 20.05273438 C12.92015198 24.12482114 14.94848369 28.06713924 17 32 C20.35942829 30.74517201 23.27434003 29.32117809 26.265625 27.34765625 C27.06516602 26.82324951 27.86470703 26.29884277 28.68847656 25.75854492 C29.95643066 24.91900269 29.95643066 24.91900269 31.25 24.0625 C32.56822754 23.20265503 32.56822754 23.20265503 33.91308594 22.32543945 C38.246623 19.49584418 42.55113859 16.63253207 46.8125 13.6953125 C47.93736816 12.93335571 47.93736816 12.93335571 49.08496094 12.15600586 C50.48937493 11.20341788 51.88403688 10.23622847 53.26660156 9.25219727 C56.4392424 7.11750436 59.27707962 5.61403284 63.109375 5.14453125 C67.39571424 6.08700946 67.78281374 6.40507231 70.140625 9.81640625 C71.12912907 11.52427714 72.08096281 13.25376579 73 15 C73.47115234 15.86093262 73.94230469 16.72186523 74.42773438 17.60888672 C75.90726435 20.36660545 77.33315917 23.1470969 78.75 25.9375 C82.95768963 34.12091773 87.2711783 42.2241352 91.79003906 50.23999023 C98 61.27070329 98 61.27070329 98 64 C99.2065625 63.95359375 100.413125 63.9071875 101.65625 63.859375 C103.27080836 63.82182713 104.88539378 63.78543023 106.5 63.75 C107.29148437 63.71648437 108.08296875 63.68296875 108.8984375 63.6484375 C116.42832439 63.52499673 121.20862757 66.01383115 127.25 70.3125 C131.29312973 74.26374042 134.77437078 79.1889819 135.12025452 85.03117371 C135.11803391 85.80616714 135.11581329 86.58116058 135.11352539 87.37963867 C135.11344986 88.26032516 135.11337433 89.14101166 135.11329651 90.04838562 C135.10813522 90.99534805 135.10297394 91.94231049 135.09765625 92.91796875 C135.09553383 94.37654045 135.09553383 94.37654045 135.09336853 95.86457825 C135.08776817 98.97225004 135.07521562 102.07984996 135.0625 105.1875 C135.05748505 107.29361875 135.05292213 109.39973863 135.04882812 111.50585938 C135.03779862 116.67060064 135.02053375 121.83528813 135 127 C135.67546875 126.95359375 136.3509375 126.9071875 137.046875 126.859375 C137.93890625 126.82328125 138.8309375 126.7871875 139.75 126.75 C140.63171875 126.70359375 141.5134375 126.6571875 142.421875 126.609375 C145 127 145 127 147.29577637 128.53796387 C149.59400804 131.85814398 149.56153524 134.74441857 149.51757812 138.64257812 C149.52809204 139.78961464 149.52809204 139.78961464 149.53881836 140.95982361 C149.5564035 143.48400334 149.54477449 146.00705915 149.53125 148.53125 C149.53394478 150.28715225 149.53782709 152.04305305 149.54284668 153.7989502 C149.54874241 157.47760232 149.54017655 161.15586574 149.52148438 164.83447266 C149.49869456 169.54921661 149.51181728 174.26304978 149.53577423 178.97776031 C149.55023032 182.60319884 149.54562714 186.22842154 149.53526306 189.85386658 C149.53259524 191.59219979 149.5358675 193.33055261 149.54518127 195.06886292 C149.55534406 197.49891033 149.53985131 199.92748419 149.51757812 202.35742188 C149.52567505 203.07546494 149.53377197 203.793508 149.54211426 204.53330994 C149.48438545 207.93397487 149.21693629 209.71558689 147.12878418 212.45324707 C144.46667175 214.38751088 143.00309334 214.42121544 139.75 214.25 C138.85796875 214.21390625 137.9659375 214.1778125 137.046875 214.140625 C136.37140625 214.09421875 135.6959375 214.0478125 135 214 C135.02094727 215.0737085 135.04189453 216.14741699 135.06347656 217.25366211 C135.13639829 221.27354361 135.1819874 225.29336778 135.21972656 229.3137207 C135.2397241 231.04689395 135.26693148 232.78000075 135.30175781 234.51293945 C135.66336748 252.98162134 135.66336748 252.98162134 131 260 C130.29875 261.0725 129.5975 262.145 128.875 263.25 C118.86093073 272.82867495 107.38983894 271.7142424 94.36914062 271.64697266 C92.16716286 271.65375422 89.96519078 271.66266037 87.76322937 271.67352295 C81.80245412 271.6962584 75.84211304 271.68750344 69.88133049 271.67162752 C63.63331842 271.65893884 57.38534268 271.67071689 51.1373291 271.67855835 C39.97501393 271.68822777 28.81285761 271.67272248 17.65058047 271.64726166 C7.54543924 271.62492511 -2.55941473 271.62880596 -12.66455078 271.65185547 C-24.42087115 271.67865901 -36.17705171 271.68854876 -47.93340349 271.67379415 C-54.14876225 271.66601257 -60.36392346 271.66492267 -66.57926941 271.68147659 C-72.42355663 271.6959559 -78.26730319 271.6858357 -84.11153221 271.65700531 C-86.25203238 271.65041308 -88.39257832 271.65226011 -90.53306007 271.66331863 C-112.79052187 271.76767774 -112.79052187 271.76767774 -121.14206696 264.01033974 C-126.92008757 258.14708654 -128.24309216 251.99274226 -128.27415466 243.84757996 C-128.27939134 243.16261784 -128.28462802 242.47765573 -128.29002339 241.77193719 C-128.3049281 239.49527723 -128.30572641 237.21884391 -128.30639648 234.94213867 C-128.31402435 233.30217616 -128.32245292 231.66221721 -128.33161926 230.02226257 C-128.3535081 225.57999158 -128.36235548 221.13778939 -128.36744571 216.69547057 C-128.37109564 213.91652794 -128.37733898 211.13760317 -128.3844471 208.35866737 C-128.40892117 198.65373573 -128.42198927 188.9488574 -128.42553711 179.24389648 C-128.42917176 170.21371356 -128.4590673 161.18387064 -128.50094169 152.15379161 C-128.53568821 144.38709233 -128.5510863 136.62050551 -128.55178314 128.85372907 C-128.55257441 124.2210965 -128.56124378 119.58881065 -128.58978081 114.95625877 C-128.61603677 110.59679803 -128.61812502 106.23796966 -128.60212517 101.87846565 C-128.6003167 100.28460175 -128.60694676 98.69070084 -128.62294388 97.0969162 C-128.7156248 87.2581825 -128.27082127 78.63040504 -121.22695065 71.10599041 C-117.04222799 67.22538313 -112.54522527 64.19578656 -106.75 63.75 C-102.20646337 62.84129267 -99.85297413 61.00594363 -96.17578125 58.27734375 C-92.19997063 55.4263012 -88.08496904 52.84232367 -83.9375 50.25 C-77.69841878 46.33748044 -71.48523066 42.39142442 -65.3125 38.375 C-59.97103161 34.90242875 -54.60065824 31.48468106 -49.1875 28.125 C-41.25034593 23.19687737 -33.42703213 18.09906341 -25.6015625 12.99609375 C-20.42734905 9.6228438 -15.24058366 6.26952635 -10 3 C-9.13246094 2.45730469 -8.26492187 1.91460937 -7.37109375 1.35546875 C-4.51358764 -0.27806439 -3.22731592 -0.72614608 0 0 Z " fill="#447DC0" transform="translate(196,62)"/>
<path d="M0 0 C4.03852134 4.22620903 6.32457062 8.36972574 8.5 13.75 C9.09297719 15.16233128 9.68803313 16.57379158 10.28515625 17.984375 C10.71658936 19.00821289 10.71658936 19.00821289 11.15673828 20.05273438 C12.92015198 24.12482114 14.94848369 28.06713924 17 32 C20.35942829 30.74517201 23.27434003 29.32117809 26.265625 27.34765625 C27.06516602 26.82324951 27.86470703 26.29884277 28.68847656 25.75854492 C29.95643066 24.91900269 29.95643066 24.91900269 31.25 24.0625 C32.56822754 23.20265503 32.56822754 23.20265503 33.91308594 22.32543945 C38.246623 19.49584418 42.55113859 16.63253207 46.8125 13.6953125 C47.93736816 12.93335571 47.93736816 12.93335571 49.08496094 12.15600586 C50.48937493 11.20341788 51.88403688 10.23622847 53.26660156 9.25219727 C56.4392424 7.11750436 59.27707962 5.61403284 63.109375 5.14453125 C67.39571424 6.08700946 67.78281374 6.40507231 70.140625 9.81640625 C71.12912907 11.52427714 72.08096281 13.25376579 73 15 C73.47115234 15.86093262 73.94230469 16.72186523 74.42773438 17.60888672 C75.90726435 20.36660545 77.33315917 23.1470969 78.75 25.9375 C82.95768963 34.12091773 87.2711783 42.2241352 91.79003906 50.23999023 C98 61.27070329 98 61.27070329 98 64 C99.2065625 63.95359375 100.413125 63.9071875 101.65625 63.859375 C103.27080836 63.82182713 104.88539378 63.78543023 106.5 63.75 C107.29148437 63.71648437 108.08296875 63.68296875 108.8984375 63.6484375 C116.42832439 63.52499673 121.20862757 66.01383115 127.25 70.3125 C131.29312973 74.26374042 134.77437078 79.1889819 135.12025452 85.03117371 C135.11803391 85.80616714 135.11581329 86.58116058 135.11352539 87.37963867 C135.11340454 88.27259644 135.11328369 89.1655542 135.11315918 90.08557129 C135.10804321 91.02026245 135.10292725 91.95495361 135.09765625 92.91796875 C135.09664917 93.77990845 135.09564209 94.64184814 135.09460449 95.52990723 C135.08937322 98.74911835 135.07541195 101.96831052 135.0625 105.1875 C135.041875 112.385625 135.02125 119.58375 135 127 C114.21 127 93.42 127 72 127 C72 126.67 72 126.34 72 126 C88.5 126 105 126 122 126 C121.938125 119.35875 121.87625 112.7175 121.8125 105.875 C121.80581299 103.78913574 121.79912598 101.70327148 121.79223633 99.55419922 C121.7657746 97.88766338 121.73749392 96.22115501 121.70703125 94.5546875 C121.71101929 93.70011963 121.71500732 92.84555176 121.71911621 91.96508789 C121.57615482 85.92913527 120.39006283 83.19362922 116 79 C112.70338964 77.35169482 109.03412956 77.84822227 105.40985107 77.84609985 C104.50991055 77.8417176 103.60997002 77.83733535 102.68275857 77.8328203 C99.64885522 77.81940088 96.61498094 77.8132464 93.58105469 77.80712891 C91.41318123 77.79923044 89.24530909 77.79096165 87.07743835 77.78234863 C79.9422634 77.75609979 72.80708248 77.74081851 65.671875 77.7265625 C63.21846767 77.72120407 60.76506038 77.71582656 58.31165314 77.71043015 C48.10848881 77.68879756 37.90532609 77.67005968 27.70214462 77.65880775 C13.06479892 77.64256143 -1.57217846 77.60937137 -16.20942426 77.55240691 C-26.49312513 77.51374567 -36.77675496 77.4941796 -47.06052661 77.48888719 C-53.20662186 77.48522863 -59.35243446 77.47315338 -65.49845123 77.44078445 C-71.28017252 77.41077115 -77.06143915 77.40436813 -82.84322166 77.41616821 C-84.96607086 77.41638951 -87.08894073 77.40803844 -89.21171761 77.39051437 C-92.10900107 77.36789729 -95.00462552 77.37608334 -97.9019165 77.39199829 C-98.74297479 77.3781162 -99.58403307 77.36423412 -100.45057797 77.34993136 C-104.60961641 77.40626277 -107.21295772 77.75523011 -110.50613022 80.41300011 C-114.23768211 84.28390163 -114.12637265 86.17804163 -114.13371277 91.47090149 C-114.13597833 92.14286865 -114.13824388 92.81483581 -114.14057809 93.50716561 C-114.14693218 95.76952413 -114.14608782 98.03182297 -114.14526367 100.29418945 C-114.14825433 101.91196775 -114.15165664 103.52974534 -114.15544128 105.14752197 C-114.16429608 109.5504952 -114.16662005 113.95344902 -114.16725707 118.35643029 C-114.16820524 122.0293766 -114.17188257 125.70231836 -114.17542917 129.37526292 C-114.18357974 138.04078634 -114.18601289 146.70629936 -114.18530273 155.37182617 C-114.18470213 164.3149718 -114.1952492 173.25805708 -114.2110464 182.20118743 C-114.22411794 189.87428138 -114.22948678 197.5473556 -114.22884732 205.22046059 C-114.22859218 209.8053796 -114.23145251 214.39024503 -114.24202538 218.97515297 C-114.25169958 223.28840577 -114.25179019 227.6015537 -114.24450874 231.91481018 C-114.24346198 233.49785706 -114.24583122 235.08091044 -114.2518692 236.66394615 C-114.25957943 238.82547026 -114.25495089 240.98663136 -114.24723816 243.14814758 C-114.24805531 244.96248779 -114.24805531 244.96248779 -114.24888897 246.81348133 C-113.99508223 250.06296212 -113.65738612 252.19294943 -112 255 C-107.72632344 257.68327801 -102.92480552 257.27983986 -98.0423584 257.25396729 C-97.13914903 257.25708727 -96.23593966 257.26020725 -95.30536032 257.26342177 C-92.27837699 257.27140008 -89.25159421 257.26507873 -86.22460938 257.25878906 C-84.05467105 257.26149899 -81.88473364 257.26505994 -79.71479797 257.26940918 C-73.82029533 257.27853515 -67.92586261 257.27498804 -62.03135872 257.26865101 C-55.86640355 257.26359212 -49.70145442 257.26828216 -43.53649902 257.27142334 C-33.18301314 257.2750633 -22.82955577 257.27026308 -12.47607422 257.26074219 C-0.50124295 257.24985759 11.47348736 257.25338314 23.44831896 257.264395 C33.72442728 257.273467 44.00051508 257.27475357 54.27662611 257.26951766 C60.41638779 257.26639749 66.55611745 257.26598994 72.69587708 257.27259064 C78.46768702 257.27836217 84.23940905 257.27437065 90.01120949 257.26280212 C92.13123745 257.26015452 94.2512728 257.26092233 96.37129784 257.26532745 C99.26175172 257.2707803 102.15192262 257.2639518 105.0423584 257.25396729 C105.88428317 257.25842873 106.72620793 257.26289017 107.59364557 257.26748681 C111.80516174 257.23920681 115.21817682 257.08948519 119 255 C121.475989 250.92800823 121.34185614 246.49639197 121.4140625 241.85546875 C121.43170654 241.17246704 121.44935059 240.48946533 121.4675293 239.7857666 C121.53022735 237.2532432 121.5766682 234.7203383 121.625 232.1875 C121.74875 226.515625 121.8725 220.84375 122 215 C104.51 215 87.02 215 69 215 C69 214.67 69 214.34 69 214 C90.78 214 112.56 214 135 214 C135.0825 219.919375 135.165 225.83875 135.25 231.9375 C135.28641602 233.78722412 135.32283203 235.63694824 135.36035156 237.54272461 C135.53971625 253.16771672 135.53971625 253.16771672 131 260 C130.29875 261.0725 129.5975 262.145 128.875 263.25 C118.86093073 272.82867495 107.38983894 271.7142424 94.36914062 271.64697266 C92.16716286 271.65375422 89.96519078 271.66266037 87.76322937 271.67352295 C81.80245412 271.6962584 75.84211304 271.68750344 69.88133049 271.67162752 C63.63331842 271.65893884 57.38534268 271.67071689 51.1373291 271.67855835 C39.97501393 271.68822777 28.81285761 271.67272248 17.65058047 271.64726166 C7.54543924 271.62492511 -2.55941473 271.62880596 -12.66455078 271.65185547 C-24.42087115 271.67865901 -36.17705171 271.68854876 -47.93340349 271.67379415 C-54.14876225 271.66601257 -60.36392346 271.66492267 -66.57926941 271.68147659 C-72.42355663 271.6959559 -78.26730319 271.6858357 -84.11153221 271.65700531 C-86.25203238 271.65041308 -88.39257832 271.65226011 -90.53306007 271.66331863 C-112.79052187 271.76767774 -112.79052187 271.76767774 -121.14206696 264.01033974 C-126.92008757 258.14708654 -128.24309216 251.99274226 -128.27415466 243.84757996 C-128.27939134 243.16261784 -128.28462802 242.47765573 -128.29002339 241.77193719 C-128.3049281 239.49527723 -128.30572641 237.21884391 -128.30639648 234.94213867 C-128.31402435 233.30217616 -128.32245292 231.66221721 -128.33161926 230.02226257 C-128.3535081 225.57999158 -128.36235548 221.13778939 -128.36744571 216.69547057 C-128.37109564 213.91652794 -128.37733898 211.13760317 -128.3844471 208.35866737 C-128.40892117 198.65373573 -128.42198927 188.9488574 -128.42553711 179.24389648 C-128.42917176 170.21371356 -128.4590673 161.18387064 -128.50094169 152.15379161 C-128.53568821 144.38709233 -128.5510863 136.62050551 -128.55178314 128.85372907 C-128.55257441 124.2210965 -128.56124378 119.58881065 -128.58978081 114.95625877 C-128.61603677 110.59679803 -128.61812502 106.23796966 -128.60212517 101.87846565 C-128.6003167 100.28460175 -128.60694676 98.69070084 -128.62294388 97.0969162 C-128.7156248 87.2581825 -128.27082127 78.63040504 -121.22695065 71.10599041 C-117.04222799 67.22538313 -112.54522527 64.19578656 -106.75 63.75 C-102.20646337 62.84129267 -99.85297413 61.00594363 -96.17578125 58.27734375 C-92.19997063 55.4263012 -88.08496904 52.84232367 -83.9375 50.25 C-77.69841878 46.33748044 -71.48523066 42.39142442 -65.3125 38.375 C-59.97103161 34.90242875 -54.60065824 31.48468106 -49.1875 28.125 C-41.25034593 23.19687737 -33.42703213 18.09906341 -25.6015625 12.99609375 C-20.42734905 9.6228438 -15.24058366 6.26952635 -10 3 C-9.13246094 2.45730469 -8.26492187 1.91460937 -7.37109375 1.35546875 C-4.51358764 -0.27806439 -3.22731592 -0.72614608 0 0 Z " fill="#3F6CB2" transform="translate(196,62)"/>
<path d="M0 0 C0.76498306 -0.00671722 1.52996613 -0.01343445 2.31813049 -0.02035522 C4.83113196 -0.03925838 7.34386559 -0.04325463 9.85693359 -0.04541016 C11.60997628 -0.05184036 13.3630179 -0.05856889 15.11605835 -0.06558228 C18.78263846 -0.07753355 22.44912446 -0.08126501 26.11572266 -0.08007812 C30.8146482 -0.07987435 35.51297291 -0.10724601 40.21175575 -0.14162254 C43.82857034 -0.16384541 47.44523883 -0.16791719 51.06211472 -0.16685867 C52.79488584 -0.16921892 54.52766074 -0.17806625 56.26036453 -0.19352341 C58.68051854 -0.21310306 61.09935641 -0.20737937 63.51953125 -0.1953125 C64.59188271 -0.21217102 64.59188271 -0.21217102 65.68589783 -0.22937012 C68.86762428 -0.18902306 70.86891573 0.12437584 73.57369995 1.8432312 C75.6904988 5.17112334 75.69105268 8.11064835 75.64794922 11.93310547 C75.6549585 12.69779648 75.66196777 13.46248749 75.66918945 14.25035095 C75.6867746 16.77453068 75.67514558 19.2975865 75.66162109 21.82177734 C75.66431588 23.5776796 75.66819818 25.33358039 75.67321777 27.08947754 C75.6791135 30.76812966 75.67054765 34.44639308 75.65185547 38.125 C75.62906566 42.83974395 75.64218837 47.55357713 75.66614532 52.26828766 C75.68060142 55.89372619 75.67599823 59.51894888 75.66563416 63.14439392 C75.66296634 64.88272713 75.66623859 66.62107995 75.67555237 68.35939026 C75.68571516 70.78943768 75.67022241 73.21801153 75.64794922 75.64794922 C75.65604614 76.36599228 75.66414307 77.08403534 75.67248535 77.82383728 C75.61838499 81.01075944 75.29800817 83.02733589 73.57348633 85.73484802 C70.25848663 87.84570894 67.33258295 87.85875402 63.52294922 87.82397461 C62.76135498 87.83259018 61.99976074 87.84120575 61.21508789 87.8500824 C58.69691947 87.872782 56.17986169 87.86599083 53.66162109 87.85693359 C51.90246248 87.86217153 50.14330667 87.86844864 48.38415527 87.87571716 C44.69200461 87.88613182 41.00023897 87.88155091 37.30810547 87.86694336 C32.60521795 87.84984967 27.90356303 87.87312726 23.20081329 87.90843296 C19.56302989 87.93054638 15.92553427 87.92893044 12.28770447 87.92066765 C10.55597085 87.91985387 8.82421485 87.92660628 7.09254456 87.94143867 C-6.73600253 88.04163319 -18.29011437 86.02459471 -28.86962891 76.29052734 C-38.16398977 66.93891169 -42.91228257 57.23137979 -43.30712891 43.91552734 C-43.00235546 31.30552582 -38.59537128 21.44973752 -29.99072266 12.29052734 C-21.70152372 4.52044996 -11.35780945 -0.01448177 0 0 Z " fill="#3253A3" transform="translate(269.86962890625,188.70947265625)"/>
<path d="M0 0 C4.03852134 4.22620903 6.32457062 8.36972574 8.5 13.75 C9.09297719 15.16233128 9.68803313 16.57379158 10.28515625 17.984375 C10.57277832 18.66693359 10.86040039 19.34949219 11.15673828 20.05273438 C12.92015198 24.12482114 14.94848369 28.06713924 17 32 C20.35942829 30.74517201 23.27434003 29.32117809 26.265625 27.34765625 C27.06516602 26.82324951 27.86470703 26.29884277 28.68847656 25.75854492 C29.95643066 24.91900269 29.95643066 24.91900269 31.25 24.0625 C32.56822754 23.20265503 32.56822754 23.20265503 33.91308594 22.32543945 C38.246623 19.49584418 42.55113859 16.63253207 46.8125 13.6953125 C47.93736816 12.93335571 47.93736816 12.93335571 49.08496094 12.15600586 C50.48937493 11.20341788 51.88403688 10.23622847 53.26660156 9.25219727 C56.4392424 7.11750436 59.27707962 5.61403284 63.109375 5.14453125 C67.39571424 6.08700946 67.78281374 6.40507231 70.140625 9.81640625 C71.12912907 11.52427714 72.08096281 13.25376579 73 15 C73.47115234 15.86093262 73.94230469 16.72186523 74.42773438 17.60888672 C75.90726435 20.36660545 77.33315917 23.1470969 78.75 25.9375 C82.95768963 34.12091773 87.2711783 42.2241352 91.79003906 50.23999023 C98 61.27070329 98 61.27070329 98 64 C31.67 64 -34.66 64 -103 64 C-99.84355952 60.84355952 -97.42242985 58.82062762 -93.73828125 56.49609375 C-92.71017334 55.84334473 -91.68206543 55.1905957 -90.62280273 54.51806641 C-89.53040283 53.83147949 -88.43800293 53.14489258 -87.3125 52.4375 C-86.17680457 51.71850475 -85.04147197 50.99893609 -83.90649414 50.27880859 C-81.64670953 48.84518115 -79.38576046 47.41346374 -77.12402344 45.98291016 C-73.04286085 43.39247545 -68.98800474 40.76299873 -64.9375 38.125 C-59.07972736 34.31947833 -53.17355574 30.6000509 -47.23925781 26.9152832 C-39.95946293 22.37925981 -32.78599255 17.68104306 -25.6015625 12.99609375 C-20.42734905 9.6228438 -15.24058366 6.26952635 -10 3 C-9.13246094 2.45730469 -8.26492187 1.91460937 -7.37109375 1.35546875 C-4.51358764 -0.27806439 -3.22731592 -0.72614608 0 0 Z " fill="#1DAA5B" transform="translate(196,62)"/>
<path d="M0 0 C0.31710937 0.65742187 0.63421875 1.31484375 0.9609375 1.9921875 C4.14455189 8.48253948 7.52884659 14.81977656 11.0625 21.125 C21 38.88004933 21 38.88004933 21 42 C-8.37 42 -37.74 42 -68 42 C-64.51686792 39.21349433 -61.26605185 36.79576585 -57.53515625 34.42578125 C-56.49439941 33.76247803 -55.45364258 33.0991748 -54.38134766 32.41577148 C-53.28612793 31.72169189 -52.1909082 31.0276123 -51.0625 30.3125 C-49.92737966 29.59022671 -48.79245213 28.86765033 -47.65771484 28.14477539 C-45.43512756 26.72916471 -43.21171678 25.31488089 -40.98779297 23.90136719 C-37.35905219 21.5921146 -33.73996127 19.26824023 -30.125 16.9375 C-25.27696199 13.81624175 -20.4147587 10.71849812 -15.5390625 7.640625 C-12.28675505 5.53913403 -9.12101967 3.32028137 -5.97265625 1.06640625 C-4 0 -4 0 0 0 Z " fill="#77C275" transform="translate(258,84)"/>
<path d="M0 0 C3.3145146 4.20876539 5.45859956 8.74477637 7.75 13.5625 C8.38615234 14.85704102 8.38615234 14.85704102 9.03515625 16.17773438 C9.43089844 17.00724609 9.82664062 17.83675781 10.234375 18.69140625 C10.77916504 19.82364624 10.77916504 19.82364624 11.33496094 20.97875977 C12 23 12 23 11 26 C8.7265625 27.62109375 8.7265625 27.62109375 5.625 29.4375 C4.45222948 30.13521568 3.28041594 30.83454152 2.109375 31.53515625 C1.13774414 32.11354248 1.13774414 32.11354248 0.14648438 32.70361328 C-3.98324529 35.19779715 -8.05000845 37.79272341 -12.125 40.375 C-12.95435059 40.89892334 -13.78370117 41.42284668 -14.63818359 41.96264648 C-17.77874035 43.94838694 -20.90817671 45.93878447 -24 48 C-26.22099304 48.24050903 -26.22099304 48.24050903 -28.83862305 48.22705078 C-30.30980843 48.22682419 -30.30980843 48.22682419 -31.81071472 48.22659302 C-32.86704605 48.21627045 -33.92337738 48.20594788 -35.01171875 48.1953125 C-36.09508011 48.1924826 -37.17844147 48.18965271 -38.29463196 48.18673706 C-41.75903308 48.17553091 -45.22317685 48.15042534 -48.6875 48.125 C-51.03450148 48.11497077 -53.381507 48.10584482 -55.72851562 48.09765625 C-61.48576507 48.07559016 -67.24286415 48.04210827 -73 48 C-70.19755504 45.13156745 -67.54496214 42.9174919 -64.125 40.8125 C-63.14402344 40.20148438 -62.16304687 39.59046875 -61.15234375 38.9609375 C-60.11207031 38.31382813 -59.07179687 37.66671875 -58 37 C-55.89349696 35.64947059 -53.78946955 34.29507457 -51.6875 32.9375 C-44.59309675 28.36671029 -37.46793042 23.8445658 -30.34472656 19.31884766 C-23.66220808 15.06874745 -17.00222789 10.78535638 -10.3659668 6.46337891 C-6.94790582 4.24109947 -3.51347553 2.07032051 0 0 Z " fill="#77C275" transform="translate(190,78)"/>
<path d="M0 0 C4.32363216 1.88599816 7.25975096 4.58057687 9 9 C9.73964131 14.82107318 9.58960566 20.17646739 6 25 C2.18142847 28.37934617 -1.48743428 30.31082871 -6.625 30.5625 C-11.03879656 30.27381795 -13.67842199 29.01259401 -17 26 C-20.43433594 21.39075966 -21.67086775 17.90199084 -21.38671875 12.140625 C-20.76511976 8.69985481 -19.25497931 6.62065163 -17 4 C-16.34 3.21625 -15.68 2.4325 -15 1.625 C-10.15736757 -0.99809256 -5.37340209 -0.83159794 0 0 Z " fill="#FAFAFC" transform="translate(279,218)"/>
</svg>
